<?xml version="1.0" standalone="no"?>
<!DOCTYPE svg PUBLIC "-//W3C//DTD SVG 1.1//EN" "http://www.w3.org/Graphics/SVG/1.1/DTD/svg11.dtd" >
<!--
2013-9-30: Created.
-->
<svg>
<metadata>
Created by iconfont
</metadata>
<defs>

<font id="iconfont" horiz-adv-x="1024" >
  <font-face
    font-family="iconfont"
    font-weight="500"
    font-stretch="normal"
    units-per-em="1024"
    ascent="896"
    descent="-128"
  />
    <missing-glyph />
    
    <glyph glyph-name="guanggaoliebiao" unicode="&#59009;" d="M192.619484 235.739441l455.235159 0 0-91.048669-455.235159 0 0 91.048669ZM192.619484 95.642682l364.188536 0 0-91.047646-364.188536 0 0 91.047646ZM886.837572 113.518818 886.837572-22.785567c0-18.768459-15.307637-34.076096-34.07712-34.076096l-681.521928 0c-18.834974 0-34.076096 15.307637-34.076096 34.076096L137.162428 113.518818l-68.152193 0L69.010235-22.785567c0-56.437383 45.789882-102.227266 102.228289-102.227266l681.521928 0c56.438407 0 102.228289 45.789882 102.228289 102.227266L954.988742 113.518818 886.837572 113.518818zM506.589268 285.107825l-48.968272 0-35.008328 93.947695-142.914944 0-33.014928-93.947695-48.968272 0 130.72839 343.216899 47.416939 0L506.589268 285.107825zM408.874783 417.829616l-51.847855 142.69391c-1.627057 4.576225-3.399423 12.55392-5.318122 23.930015l-1.108241 0c-1.627057-10.341532-3.472078-18.318204-5.539156-23.930015L293.656645 417.829616 408.874783 417.829616zM556.221666 285.107825l0 343.216899 97.93552 0c51.994188 0 95.238085-15.142885 129.730667-45.422516 34.489512-30.2827 51.738361-70.903863 51.738361-121.865535 0-53.17713-17.247826-95.795786-51.738361-127.847783-34.492582-32.055067-78.918397-48.081065-133.276423-48.081065L556.221666 285.107825zM600.535941 588.88548l0-264.559445 49.853431 0c43.574425 0 77.585029 11.888771 102.034884 35.673477 24.446785 23.781636 36.671201 57.090253 36.671201 99.929943 0 42.836621-12.55699 75.03802-37.668924 96.606245-25.113981 21.565155-58.127885 32.349779-99.042737 32.349779L600.535941 588.88548z"  horiz-adv-x="1024" />

    
    <glyph glyph-name="pinpaiguanli" unicode="&#58948;" d="M310.280766 13.736095c40.866756 85.520769 64.936965 135.805012 79.483262 165.759231-15.2094 10.127661-24.314779 23.390733-30.93864 33.059953-10.469446 15.263635-14.423501 21.024849-37.654598 21.589714-8.951883 0.030699-16.850783 0.862647-23.818475 2.289136l-88.274486-173.947727 41.844014 4.701069 22.23849 2.494821 12.370749-18.651802L310.280766 13.736095M726.265992 18.971329l10.279111 26.718525 10.348696 26.901697 28.580942-3.724835 36.936237-4.822842-92.502787 172.917258c-18.84316-3.220345-27.611871-6.714935-31.503505-8.845459-2.90005-1.579985-2.90005-1.579985-6.135744-7.486508-3.502777-6.380314-8.700149-15.866363-18.751063-24.917506-8.959046-9.265014-18.407232-16.010649-27.665083-20.894889L726.265992 18.971329M589.216639 251.240347l0.304945 0.01535c0.618077 0.197498 3.778046 2.364861 7.943926 9.386788 23.506367 39.60809 60.244083 60.869323 106.247836 61.480236 13.171997 0.176009 14.103206 1.121544 14.278191 14.430664 0.618077 46.034453 21.811772 82.826404 61.289901 106.384959 11.294231 6.745634 11.691273 8.227382 5.249561 19.766183-22.428825 40.172955-22.428825 82.635045 0 122.809023 6.441713 11.538801 6.052856 13.019525-5.249561 19.757996-39.479153 23.565718-60.671825 60.358693-61.289901 106.407472-0.174985 13.301957-1.106194 14.240329-14.278191 14.416338-45.995567 0.610914-82.741469 21.864984-106.247836 61.488423-4.174066 7.028067-7.325849 9.188266-8.257058 9.393951-0.633427 0-4.158716-0.198521-11.187807-4.14439-19.956517-11.19497-40.599673-16.881482-61.365626-16.881482-20.764929 0-41.409109 5.678326-61.366649 16.881482-6.807033 3.823072-10.32516 4.129041-11.393491 4.129041-0.030699 0-0.069585 0-0.092098 0-0.618077-0.191358-3.78521-2.358721-7.959276-9.394974-23.520693-39.60809-60.259432-60.862159-106.23965-61.473073-13.171997-0.176009-14.110369-1.121544-14.286378-14.430664-0.60989-46.026266-21.803585-82.818217-61.289901-106.392122-11.295254-6.738471-11.691273-8.219195-5.243421-19.757996 22.428825-40.172955 22.428825-82.643232 0-122.809023-6.448876-11.538801-6.051833-13.019525 5.250584-19.766183 39.479153-23.565718 60.671825-60.358693 61.282738-106.384959 0.176009-13.30912 1.11438-14.255679 14.286378-14.430664 45.988404-0.610914 82.727143-21.872147 106.246813-61.480236 4.158716-7.013741 7.326872-9.188266 8.242731-9.402137 0.633427 0 4.158716 0.198521 11.211343 4.158716 19.949354 11.187807 40.59251 16.865109 61.350277 16.865109 20.765953 0 41.409109-5.677303 61.373813-16.880459C585.057923 251.438868 588.583213 251.240347 589.216639 251.240347M732.980927-65.610044l-153.807015 265.138636c0 0 2.533706-0.419556 6.752798-0.419556 10.951423 0 33.266661 2.816139 52.192709 23.055089 22.720468 19.278065 2.473331 43.958164 102.103446 54.482869L878.318036 18.505725l-107.582227 14.034645L732.980927-65.610044 732.980927-65.610044 732.980927-65.610044zM315.469951-60.35946l-60.46614 91.14486-109.322871-12.279674 136.339178 268.656763c0 0 4.63967-16.385179 39.59274-16.385179 80.399121-1.75497 54.543244-67.905576 119.695103-69.50091C439.690114 199.604316 315.469951-60.35946 315.469951-60.35946L315.469951-60.35946 315.469951-60.35946zM441.331497 201.275375c-0.008186 0-0.01535 0-0.022513 0 0.007163 0.008186 0.01535 0.008186 0.01535 0.008186S441.331497 201.283562 441.331497 201.275375L441.331497 201.275375 441.331497 201.275375zM589.216639 214.608032c-8.921183 0-18.628266 2.946099-29.130458 8.845459-14.476713 8.119935-28.954449 12.180414-43.431162 12.180414-14.476713 0-28.954449-4.060479-43.431162-12.180414-10.492982-5.89936-20.208251-8.845459-29.122271-8.845459-15.690354 0-28.939099 9.112542-39.753399 27.344788-16.980743 28.588105-42.050722 43.103704-75.232448 43.545772s-49.979298 17.300015-50.429553 50.567699c-0.435928 33.266661-14.919804 58.405201-43.432185 75.422783-28.511357 17.019629-34.669614 40.042995-18.453281 69.074192 16.210193 29.030174 16.210193 58.06137 0 87.092567-16.217357 29.030174-10.058077 52.062749 18.453281 69.074192 28.512381 17.017582 42.996257 42.157145 43.432185 75.423807 0.450255 33.273824 17.246803 50.132794 50.429553 50.574862 33.18275 0.433882 58.252729 14.94948 75.232448 43.545772 10.8143 18.22406 24.070208 27.336602 39.760562 27.336602 8.912997 0 18.621103-2.946099 29.114085-8.830109 14.476713-8.128121 28.954449-12.195763 43.431162-12.195763 14.477736 0 28.954449 4.067642 43.431162 12.195763 10.492982 5.884011 20.201088 8.830109 29.122271 8.830109 15.691377 0 28.947286-9.112542 39.761586-27.336602 16.972557-28.596292 42.056861-43.11189 75.231425-43.545772 33.174564-0.443092 49.987484-17.301038 50.414203-50.574862 0.450255-33.266661 14.927991-58.405201 43.439348-75.423807 28.511357-17.010419 34.662451-40.042995 18.461467-69.074192-16.210193-29.031197-16.210193-58.06137 0-87.092567 16.200984-29.031197 10.050913-52.055586-18.461467-69.074192-28.511357-17.017582-42.989093-42.156122-43.439348-75.422783-0.426719-33.266661-17.23964-50.124608-50.414203-50.567699s-58.259892-14.95869-75.231425-43.545772C618.155738 223.720573 604.89983 214.608032 589.216639 214.608032L589.216639 214.608032 589.216639 214.608032zM282.020118 287.162488l-0.01535 0.037862L282.020118 287.162488 282.020118 287.162488 282.020118 287.162488z"  horiz-adv-x="1024" />

    
    <glyph glyph-name="miaosha" unicode="&#59054;" d="M513.051447 385.737574M513.051447 385.737574M513.051447 385.737574M513.051447 385.737574M513.051447-60.38095c-60.21236 0-118.640074 11.799744-173.659155 35.07075-53.126988 22.470781-100.833523 54.633295-141.794423 95.594195-40.960901 40.959877-73.123414 88.666412-95.594195 141.7934-23.271006 55.020104-35.07075 113.446795-35.07075 173.659155s11.799744 118.640074 35.07075 173.659155c22.470781 53.126988 54.633295 100.834546 95.594195 141.794423s88.667435 73.123414 141.794423 95.594195c55.020104 23.271006 113.446795 35.07075 173.659155 35.07075s118.640074-11.799744 173.659155-35.07075c53.126988-22.470781 100.833523-54.633295 141.794423-95.594195s73.123414-88.667435 95.594195-141.794423c23.271006-55.020104 35.07075-113.446795 35.07075-173.659155s-11.799744-118.639051-35.07075-173.659155c-22.470781-53.126988-54.633295-100.833523-95.594195-141.7934-40.960901-40.960901-88.667435-73.123414-141.794423-95.594195C631.690498-48.581206 573.263807-60.38095 513.051447-60.38095zM513.051447 770.457726c-212.135468 0-384.720152-172.584684-384.720152-384.720152 0-212.134445 172.584684-384.720152 384.720152-384.720152s384.720152 172.584684 384.720152 384.720152C897.771599 597.872019 725.186915 770.457726 513.051447 770.457726zM576.147484 642.07066 355.307773 350.245222 465.728652 350.245222 446.009542 129.403464 670.795121 417.287127 548.542776 417.287127Z"  horiz-adv-x="1024" />

    
    <glyph glyph-name="shangpinleixing" unicode="&#59116;" d="M895.863693 894.701649 128.038831 894.701649C57.728125 894.701649 0.600677 837.574201 0.600677 767.263495l0-767.824862c0-70.410579 57.127448-127.438154 127.438154-127.438154l767.824862 0c70.410579 0 127.438154 57.127448 127.438154 127.438154L1023.301847 767.263495C1023.301847 837.674074 966.174399 894.701649 895.863693 894.701649zM895.4642 63.956695c0-34.955606-28.663597-64.118569-64.118569-64.118569L192.556893-0.161874c-34.955606 0-64.118569 28.663597-64.118569 64.118569L128.438323 702.845306c0 34.955606 28.663597 64.118569 64.118569 64.118569l638.888611 0c34.955606 0 64.118569-28.663597 64.118569-64.118569L895.564074 63.956695zM256.27597 255.513418l127.837646 0 0-127.837646-127.837646 0L256.27597 255.513418zM256.27597 447.269887l127.837646 0 0-127.837646-127.837646 0L256.27597 447.269887zM256.27597 639.026357l127.837646 0 0-127.837646-127.837646 0L256.27597 639.026357zM448.032439 255.513418l319.594115 0 0-127.837646-319.594115 0C448.032439 127.675772 448.032439 255.513418 448.032439 255.513418zM448.032439 447.269887l319.594115 0 0-127.837646-319.594115 0C448.032439 319.432241 448.032439 447.269887 448.032439 447.269887zM448.032439 639.026357l319.594115 0 0-127.837646-319.594115 0C448.032439 511.18871 448.032439 639.026357 448.032439 639.026357z"  horiz-adv-x="1024" />

    
    <glyph glyph-name="tuihuoyuanyin" unicode="&#58968;" d="M806.527228-60.285977 457.300982-60.285977c-53.147561 0-88.449557 27.532034-88.449557 93.11407L368.851424 736.734772c0 46.381482 42.068075 88.44829 88.449557 88.44829l592.045829 0c43.653756 0 88.449557-42.066808 88.449557-88.44829l0-420.888628c0-10.913439-15.576684-21.825611-26.491391-21.825611-10.913439 0-26.488856 10.912172-26.488856 21.825611L1084.816121 736.734772c0 16.368891-16.370159 32.73905-32.740317 32.73905L457.300982 769.473821c-16.368891 0-32.73905-16.370159-32.73905-32.73905l0-709.364665c0-18.730301 16.902521-32.73905 32.73905-32.73905l343.769527 0c10.913439 0 21.825611-16.742813 21.825611-27.657519C822.896119-46.668895 817.441935-60.285977 806.527228-60.285977L806.527228-60.285977 806.527228-60.285977zM791.766834 195.985909 541.878233 195.985909c-10.912172 0-21.825611 15.577952-21.825611 26.490123 0 10.915974 10.913439 26.493926 21.825611 26.493926l249.888601 0c10.914707 0 22.302202-11.596638 21.826878-28.826182C813.484704 206.473457 802.68154 195.985909 791.766834 195.985909L791.766834 195.985909 791.766834 195.985909zM962.040566 387.451486 536.421513 387.451486c-10.912172 0-21.826878 15.577952-21.826878 26.491391 0 10.915974 10.914707 26.491391 21.826878 26.491391l428.345511 0c10.915974 0 21.828146-15.575417 21.828146-26.491391C986.59517 403.029438 972.952737 387.451486 962.040566 387.451486L962.040566 387.451486 962.040566 387.451486zM967.497285 578.917063 541.878233 578.917063c-10.912172 0-21.825611 15.577952-21.825611 26.490123 0 10.914707 10.913439 26.491391 21.825611 26.491391l428.346779 0c10.912172 0 21.826878-15.576684 21.826878-26.491391C992.05189 594.495015 981.137183 578.917063 967.497285 578.917063L967.497285 578.917063 967.497285 578.917063zM876.339015-52.891203l-2.25874 2.25874c-9.858854 9.858854-9.858854 25.991984 0 35.850837l218.21301 218.211742c9.858854 9.858854 25.991984 9.858854 35.850837 0l2.25874-2.25874c9.858854-9.858854 9.858854-25.991984 0-35.850837L912.189852-52.891203C902.330999-62.750056 886.197868-62.750056 876.339015-52.891203zM1130.401594-50.633731l-2.25874-2.25874c-9.858854-9.858854-25.991984-9.858854-35.850837 0L874.080275 165.320539c-9.858854 9.858854-9.858854 25.991984 0 35.850837l2.25874 2.25874c9.858854 9.858854 25.991984 9.858854 35.850837 0l218.211742-218.211742C1140.261715-24.640479 1140.261715-40.77361 1130.401594-50.633731z"  horiz-adv-x="1510" />

    
    <glyph glyph-name="sousuo" unicode="&#59111;" d="M925.452543-63.472358c-7.116071-0.001023-14.610766 2.433422-21.473057 8.200776-0.923022 0.776689-2.025123 1.749854-3.464915 3.063779-2.284019 2.084475-5.449106 5.051039-9.676383 9.066493-7.540743 7.167237-18.521842 17.743106-32.638351 31.434943-23.681352 22.971178-56.582693 55.091736-97.789187 95.470375-47.434336 46.482661-95.205339 93.454462-121.370255 119.199823-46.986127-35.420721-123.625622-78.831416-216.971613-78.831416-48.103578 0-94.788853 9.335622-138.758274 27.745924-42.473347 17.785062-80.618109 43.243897-113.373117 75.6694-32.776498 32.448016-58.516742 70.247924-76.505441 112.351857-18.640546 43.62866-28.091802 89.959871-28.091802 137.703245s9.451256 94.074585 28.091802 137.703245c17.9887 42.103934 43.728944 79.903841 76.505441 112.351857 32.755008 32.426527 70.898747 57.885362 113.373117 75.670423 43.969421 18.410302 90.654696 27.745924 138.758274 27.745924s94.788853-9.335622 138.758274-27.745924c42.47437-17.785062 80.618109-43.243897 113.373117-75.670423 32.776498-32.448016 58.517765-70.247924 76.506465-112.351857 18.640546-43.62866 28.091802-89.959871 28.091802-137.703245 0-84.216054-32.461319-165.108408-92.074022-230.962256 26.76662-25.963325 73.072249-70.904886 118.991068-115.583458 41.274032-40.158628 74.16821-72.253604 97.766674-95.39465 14.052041-13.779841 24.942065-24.5133 32.366152-31.905664 4.129041-4.112668 7.189749-7.190773 9.357112-9.414417 4.846378-4.971222 12.170181-12.485359 12.271488-25.544793l0.105401-13.392008-9.473769-9.479909C942.402587-59.779246 934.215114-63.471334 925.452543-63.472358zM422.068781 767.117654c-161.434739 0-292.771997-129.875976-292.771997-289.514813s131.337257-289.514813 292.771997-289.514813c87.643106 0 159.004387 48.65821 195.361433 79.435167l2.085498 1.948375c61.471027 57.413618 95.325066 131.330094 95.325066 208.131271C714.840778 637.241678 583.504544 767.117654 422.068781 767.117654z"  horiz-adv-x="1024" />

    
    <glyph glyph-name="shousuo" unicode="&#58893;" d="M1151.1808 740.352H77.6192A77.7216 77.7216 0 0 0 0 818.176C0 861.184 34.816 896 77.6192 896h1073.5616c42.9056 0 77.6192-34.816 77.6192-77.824s-34.816-77.824-77.6192-77.824z m0-434.176H77.6192A77.7216 77.7216 0 0 0 0 384c0 43.008 34.816 77.824 77.6192 77.824h1073.5616c42.9056 0 77.6192-34.816 77.6192-77.824s-34.816-77.824-77.6192-77.824z m0-434.176H77.6192A77.7216 77.7216 0 0 0 0-50.176c0 43.008 34.816 77.824 77.6192 77.824h1073.5616c42.9056 0 77.6192-34.816 77.6192-77.824s-34.816-77.824-77.6192-77.824z"  horiz-adv-x="1228" />

    
    <glyph glyph-name="LandingLogo" unicode="&#59037;" d="M831.917242-127.90696200000002a156.006905 156.006905 0 0 0-155.839436 156.174375V462.14301a138.70175 138.70175 0 0 1-138.552888 138.832004v0.427977c-2.884193-0.167469-5.73117-0.427977-8.652578-0.427977a147.521797 147.521797 0 0 0 0 295.024986c2.921408 0 5.768385-0.260508 8.652578-0.446585V896a433.410405 433.410405 0 0 0 432.945213-433.85699v-590.049972h-138.552889z m-519.526812 0H173.856149a156.025513 156.025513 0 0 0-155.858043 156.174375V305.950028h0.446584c-0.167469 2.884193-0.446585 5.749777-0.446584 8.671185a147.205466 147.205466 0 1 0 294.392324 0c0-2.921408-0.260508-5.786993-0.427977-8.671185h0.427977v-433.85699z m-155.858044 659.45667a156.192982 156.192982 0 1 0 155.858044 156.192982 156.025513 156.025513 0 0 0-155.858044-156.192982z m1264.188113-659.45667a156.025513 156.025513 0 0 0-155.858044 156.174375V462.14301a138.683142 138.683142 0 0 1-138.534281 138.832004v0.427977c-2.884193-0.167469-5.73117-0.427977-8.652577-0.427977a147.521797 147.521797 0 0 0 0 295.024986c2.921408 0 5.768385-0.260508 8.652577-0.446585V896a433.410405 433.410405 0 0 0 432.945213-433.85699v-590.049972h-138.552888z"  horiz-adv-x="1559" />

    
    <glyph glyph-name="youhuiquan" unicode="&#58941;" d="M56.186633 784.717739A111.304299 111.304299 0 0 0 167.713541 895.999777h679.04527a111.348821 111.348821 0 0 0 111.526908-111.282038V-16.695478a111.304299 111.304299 0 0 0-111.526908-111.282039H167.713541a111.304299 111.304299 0 0 0-111.526908 111.259778V784.717739zM129.335819 756.157056v-744.336372a66.626754 66.626754 0 0 1 66.738057-66.693537h622.324599a66.849362 66.849362 0 0 1 66.738058 66.693537V756.157056a66.626754 66.626754 0 0 1-66.738058 66.693536H196.073876A66.849362 66.849362 0 0 1 129.335819 756.157056zM122.969213 740.173758h784.472702v-48.751283H122.991473zM122.969213 72.347962h784.472702v-48.751284H122.991473zM641.491422 577.936611l-123.325164-164.196102-123.280642 164.196102a23.618772 23.618772 0 0 1-33.190942 4.65252 23.641033 23.641033 0 0 1-4.674781-33.190942l131.539422-175.126185h-88.909875c-13.133907 0-23.707816-10.573908-23.707816-23.707816s10.573908-23.707816 23.707816-23.707815h94.831263v-47.415632h-94.831263c-13.133907 0-23.707816-10.573908-23.707816-23.707816s10.573908-23.707816 23.707816-23.707815h94.831263v-71.123448h0.089044c0-0.178087-0.089043-0.422956-0.089044-0.601043 0-13.133907 10.573908-23.707816 23.707816-23.707816s23.707816 10.596169 23.707816 23.707816c0 0.178087-0.089043 0.422956-0.089044 0.601043h0.089044v71.123448h94.831263c13.133907 0 23.730077 10.573908 23.730077 23.707815s-10.573908 23.707816-23.707816 23.707816h-94.853524v47.415632h94.831263c13.133907 0 23.730077 10.573908 23.730077 23.707815s-10.573908 23.707816-23.707816 23.707816H547.839984l131.606204 175.126185a23.730077 23.730077 0 1 1-37.954766 28.538422z"  horiz-adv-x="1024" />

    
    <glyph glyph-name="yonghu" unicode="&#58882;" d="M496.417391 357.286957c-144.695652 0-262.678261 117.982609-262.678261 262.67826S351.721739 882.643478 496.417391 882.643478c144.695652 0 262.678261-117.982609 262.678261-262.678261s-117.982609-262.678261-262.678261-262.67826zM972.8-30.052174c-6.678261 62.330435-26.713043 153.6-95.721739 233.739131-60.104348 71.234783-142.469565 117.982609-249.321739 138.017391-40.069565-20.034783-86.817391-31.165217-133.565218-31.165218-48.973913 0-95.721739 11.130435-138.017391 33.391305-91.269565-20.034783-164.730435-64.556522-220.382609-135.791305-62.330435-80.13913-82.365217-173.634783-89.043478-238.191304-2.226087-22.26087 4.452174-42.295652 20.034783-60.104348 15.582609-15.582609 35.617391-24.486957 57.878261-24.486956h770.226087c22.26087 0 42.295652 8.904348 57.87826 24.486956 15.582609 17.808696 22.26087 37.843478 20.034783 60.104348z"  horiz-adv-x="1024" />

    
    <glyph glyph-name="shangpin" unicode="&#58880;" d="M884.686 864.107H676.032c-17.315 0-31.353-14.036-31.353-31.353S658.715 801.4 676.032 801.4h194.972c30.686 0 55.562-24.876 55.562-55.562v-718.596c0-30.687-24.876-55.562-55.562-55.562H152.412c-30.686 0-55.562 24.876-55.562 55.562V745.839c0 30.686 24.876 55.562 55.562 55.562h168.225c17.316 0 31.354 14.038 31.354 31.354s-14.038 31.353-31.354 31.353H138.73c-57.761 0-104.587-46.826-104.587-104.587v-745.962c0-57.761 46.826-104.587 104.587-104.587h745.959c57.761 0 104.587 46.825 104.587 104.587V759.52c0 57.761-46.826 104.587-104.588 104.587zM830.993 624.88c0 29.163-23.641 52.803-52.803 52.803s-52.803-23.641-52.803-52.803c0-17.127 8.16-32.341 20.798-41.989-23.728-107.101-119.425-187.439-233.57-187.439-114.156 0-209.862 80.365-233.568 187.487 12.603 9.65 20.738 24.842 20.738 41.942 0 29.163-23.641 52.801-52.801 52.801s-52.801-23.641-52.801-52.801c0-19.181 10.227-35.969 25.525-45.216 1.219-1.094 2.694-2.077 4.491-2.923 23.028-138.407 143.585-244.281 288.42-244.281 144.841 0 265.401 105.874 288.423 244.281 1.927 0.906 3.461 1.945 4.7 3.089 15.143 9.281 25.252 25.983 25.252 45.051z"  horiz-adv-x="1024" />

    
    <glyph glyph-name="shousuo2" unicode="&#59161;" d="M0 810.666667c0 51.2 34.133333 85.333333 85.333333 85.333333s85.333333-34.133333 85.333334-85.333333v-853.333334c0-51.2-34.133333-85.333333-85.333334-85.333333s-85.333333 34.133333-85.333333 85.333333V810.666667zM426.666667 810.666667c0 51.2 34.133333 85.333333 85.333333 85.333333s85.333333-34.133333 85.333333-85.333333v-853.333334c0-51.2-34.133333-85.333333-85.333333-85.333333s-85.333333 34.133333-85.333333 85.333333V810.666667zM853.333333 810.666667c0 51.2 34.133333 85.333333 85.333334 85.333333s85.333333-34.133333 85.333333-85.333333v-853.333334c0-51.2-34.133333-85.333333-85.333333-85.333333s-85.333333 34.133333-85.333334 85.333333V810.666667z"  horiz-adv-x="1024" />

    
    <glyph glyph-name="shangpinfenlei" unicode="&#58978;" d="M774.144-31.232h-63.488c-81.408 0-147.456 66.048-147.456 147.456V304.64c0 10.752 8.192 19.456 17.92 20.48 3.072 1.536 6.144 2.56 9.728 2.56h183.296c81.408 0 147.456-66.048 147.456-147.456v-63.488c0-81.92-66.048-147.968-147.456-147.968z m-170.496 317.44v-169.984c0-58.88 47.616-106.496 106.496-106.496h63.488c58.88 0 106.496 47.616 106.496 106.496v63.488c0 58.88-47.616 106.496-106.496 106.496H603.648z m-290.304-317.44h-63.488c-81.408 0-147.456 66.048-147.456 147.456v63.488c0 81.408 66.048 147.456 147.456 147.456h183.296c3.584 0 6.656-1.024 9.728-2.56 10.24-1.024 18.432-9.728 18.432-20.48v-188.416c0-80.896-66.56-146.944-147.968-146.944z m-63.488 317.44c-58.88 0-106.496-47.616-106.496-106.496v-63.488c0-58.88 47.616-106.496 106.496-106.496h63.488c58.88 0 106.496 47.616 106.496 106.496V286.208H249.856z m183.296 144.384H249.856c-81.408 0-147.456 66.048-147.456 147.456v63.488c0 81.408 66.048 147.456 147.456 147.456h63.488c81.408 0 147.456-66.048 147.456-147.456V453.12c0-10.752-8.192-19.456-17.92-20.48-2.56-1.536-6.144-2.048-9.728-2.048z m-183.296 317.44c-58.88 0-106.496-47.616-106.496-106.496v-63.488c0-58.88 47.616-106.496 106.496-106.496H419.84V641.536c0 58.88-47.616 106.496-106.496 106.496h-63.488z m524.288-317.44H590.848c-3.584 0-6.656 1.024-9.728 2.56-10.24 1.024-18.432 9.728-18.432 20.48V641.536c0 81.408 66.048 147.456 147.456 147.456h63.488c81.408 0 147.456-66.048 147.456-147.456v-63.488c0.512-81.408-65.536-147.456-146.944-147.456z m-170.496 40.96h169.984c58.88 0 106.496 47.616 106.496 106.496v63.488c0 58.88-47.616 106.496-106.496 106.496h-63.488c-58.88 0-106.496-47.616-106.496-106.496v-169.984z"  horiz-adv-x="1024" />

    
    <glyph glyph-name="yanjing" unicode="&#58900;" d="M941.677 504.29c9.338 14.006 6.225 32.681-6.225 43.575-14.006 10.894-32.681 7.781-43.575-6.225-1.557-1.556-174.3-205.426-379.728-205.426-199.2 0-379.727 205.426-381.283 206.982-10.895 12.45-31.125 14.006-43.576 3.113-12.45-10.894-14.006-31.125-3.113-43.576 3.113-4.668 40.463-46.687 99.6-93.375l-79.37-82.482c-12.45-12.45-10.893-32.681 1.557-43.575 3.113-6.225 10.894-9.338 18.676-9.338 7.78 0 15.562 3.113 21.787 9.338l85.594 88.706c40.463-28.013 88.707-54.47 141.62-73.144l-32.682-110.495c-4.668-17.118 4.67-34.237 21.788-38.906h9.337c14.006 0 26.457 9.338 29.569 23.344l32.681 110.495c24.9-4.669 51.357-7.782 77.813-7.782s52.913 3.113 77.814 7.782l32.68-108.939c3.114-14.006 17.12-23.343 29.57-23.343 3.113 0 6.225 0 7.782 1.556 17.118 4.67 26.456 21.787 21.788 38.906L649.099 300.42c52.914 18.676 101.157 45.132 141.62 73.144l84.038-87.15c6.225-6.225 14.006-9.338 21.787-9.338 7.781 0 15.563 3.113 21.787 9.337 12.45 12.451 12.45 31.125 1.557 43.576l-79.37 82.481c63.808 46.689 101.16 91.82 101.16 91.82z"  horiz-adv-x="1024" />

    
    <glyph glyph-name="yemian-copy-copy" unicode="&#58881;" d="M562.805 815.3025a72.135 72.135 0 0 1-96.93 0L73.925 443.13a36.1575 36.1575 0 0 1 48.42-53.7075l6.2325 5.9175V6.899999999999977a72.315 72.315 0 0 1 72.315-72.405h210.4425v217.71a50.9175 50.9175 0 0 0 50.94 50.985h99.0225a50.9175 50.9175 0 0 0 50.94-50.985v-217.71h215.4375a72.315 72.315 0 0 1 72.3375 72.405V390.5925c16.065-14.535 38.8575-13.4325 52.2225 1.4625a36.1575 36.1575 0 0 1-2.61 51.075L562.805 815.28z"  horiz-adv-x="1024" />

    
    <glyph glyph-name="xiaoshouzonge" unicode="&#58905;" d="M635.1 377.1H388.9c-10.9 0-19.8 8.9-19.8 19.8s8.9 19.8 19.8 19.8h246.2c10.9 0 19.8-8.9 19.8-19.8s-8.9-19.8-19.8-19.8zM635.1 258.2H388.9c-10.9 0-19.8 8.9-19.8 19.8s8.9 19.8 19.8 19.8h246.2c10.9 0 19.8-8.9 19.8-19.8s-8.9-19.8-19.8-19.8zM512 166.3c-10.9 0-19.8 8.9-19.8 19.8V459.5c0 10.9 8.9 19.8 19.8 19.8s19.8-8.9 19.8-19.8v-273.4c0-10.9-8.9-19.8-19.8-19.8zM512 433.1L377.2 567.9c-7.7 7.7-7.7 20.2 0 28 7.7 7.7 20.2 7.7 28 0L512 489l106.9 106.9c7.7 7.7 20.2 7.7 28 0 7.7-7.7 7.7-20.2 0-28L512 433.1zM512-31.2C283.1-31.2 96.8 155.1 96.8 384S283.1 799.2 512 799.2 927.2 612.9 927.2 384 740.9-31.2 512-31.2z m0 790.8c-207.1 0-375.6-168.5-375.6-375.6S304.9 8.4 512 8.4 887.6 176.9 887.6 384 719.1 759.6 512 759.6z"  horiz-adv-x="1024" />

    
    <glyph glyph-name="shousuo1" unicode="&#58904;" d="M200.7 743.6v-719.3c0-30.6-23.2-55.3-51.9-55.3S97-6.2 97 24.3V743.7c0 30.6 23.2 55.3 51.9 55.3s51.8-24.8 51.8-55.4zM563.9 743.6v-719.3c0-30.6-23-55.3-51.2-55.3-28.3 0-51.2 24.8-51.2 55.3V743.7c0 30.6 23 55.3 51.2 55.3 28.2 0 51.2-24.8 51.2-55.4zM927 743.6v-719.3c0-30.6-23-55.3-51.2-55.3-28.3 0-51.2 24.8-51.2 55.3V743.7c0 30.6 23 55.3 51.2 55.3 28.2 0 51.2-24.8 51.2-55.4z"  horiz-adv-x="1024" />

    
    <glyph glyph-name="icon-" unicode="&#58906;" d="M251.76113265-66.46292570000003a125.27159459 125.27159459 0 0 0-125.09998964 125.09998966L126.66114301 709.36293604A125.27159459 125.27159459 0 0 0 251.76113265 834.4629257l520.56353716 0a125.27159459 125.27159459 0 0 0 125.09998966-125.09998966l0-650.64006963a125.27159459 125.27159459 0 0 0-125.09998966-125.09998964z m0 845.84067077a70.18641395 70.18641395 0 0 1-70.1006115-70.10061148l0-650.64006963a70.18641395 70.18641395 0 0 1 70.1006115-70.10061148l520.56353716 0a70.18641395 70.18641395 0 0 1 70.1006115 70.10061148L842.42528131 709.36293604a70.18641395 70.18641395 0 0 1-70.1006115 70.10061148zM306.07409111 356.45740969999997a27.5425903 27.5425903 0 1 0 0 54.99937814l411.85181778 0a27.5425903 27.5425903 0 1 0 0-54.99937814zM306.07409111 226.38087725000003a27.5425903 27.5425903 0 1 0 0 54.65616831l281.00306317 0a27.5425903 27.5425903 0 1 0 0-55.08518063zM306.07409111 486.96295444a27.5425903 27.5425903 0 1 0 0 55.08518063l411.85181778 0a27.5425903 27.5425903 0 1 0 0-55.08518063z"  horiz-adv-x="1024" />

    
    <glyph glyph-name="liebiao" unicode="&#59444;" d="M590.615 737.769h393.077c21.612 0 39.308 17.687 39.308 39.308 0 21.618-17.696 39.308-39.308 39.308H590.615c-21.624 0-39.308-17.69-39.308-39.308 0.001-21.621 17.684-39.308 39.308-39.308zM983.692 580.538H590.615c-21.624 0-39.308-17.69-39.308-39.308 0-21.621 17.683-39.308 39.308-39.308h393.077c21.612 0 39.308 17.687 39.308 39.308 0 21.619-17.696 39.308-39.308 39.308zM341.667 881.897H105.821C48.177 881.897 1 834.727 1 777.077v-235.846c0-57.65 47.177-104.821 104.821-104.821h235.846c57.656 0 104.821 47.171 104.821 104.821V777.077c-0.001 57.65-47.165 104.82-104.821 104.82z m26.205-314.461c0-28.825-23.582-52.41-52.41-52.41H132.026c-28.828 0-52.41 23.585-52.41 52.41V750.872c0 28.825 23.582 52.41 52.41 52.41h183.436c28.828 0 52.41-23.585 52.41-52.41v-183.436zM983.692 266.077H590.615c-21.624 0-39.308-17.69-39.308-39.308 0-21.621 17.683-39.308 39.308-39.308h393.077c21.612 0 39.308 17.687 39.308 39.308 0 21.618-17.696 39.308-39.308 39.308zM983.692 30.231H590.615c-21.624 0-39.308-17.69-39.308-39.308 0-21.621 17.683-39.308 39.308-39.308h393.077c21.612 0 39.308 17.687 39.308 39.308 0 21.618-17.696 39.308-39.308 39.308zM341.667 331.59H105.821C48.177 331.59 1 284.419 1 226.769v-235.846c0-57.65 47.177-104.821 104.821-104.821h235.846c57.656 0 104.821 47.171 104.821 104.821V226.769c-0.001 57.65-47.165 104.821-104.821 104.821z m26.205-314.462c0-28.825-23.582-52.41-52.41-52.41H132.026c-28.828 0-52.41 23.585-52.41 52.41V200.564c0 28.825 23.582 52.41 52.41 52.41h183.436c28.828 0 52.41-23.585 52.41-52.41v-183.436z"  horiz-adv-x="1024" />

    
    <glyph glyph-name="icon-test" unicode="&#58962;" d="M432 186.752l-166.624 166.624 45.248 45.248 121.376-121.376 281.376 281.376 45.248-45.248L432 186.752zM512 832C264.576 832 64 631.424 64 384s200.576-448 448-448 448 200.576 448 448S759.424 832 512 832z"  horiz-adv-x="1024" />

    
    <glyph glyph-name="tuihuoshenqing" unicode="&#59243;" d="M482.669714 357.083429h-66.121143l11.702858-11.702858a26.624 26.624 0 0 0-37.522286-37.522285l-49.225143 49.225143a31.670857 31.670857 0 0 0 0 44.982857l48.786286 48.713143a26.624 26.624 0 0 0 37.595428-37.595429l-6.656-6.582857h158.573715a129.682286 129.682286 0 0 0 0-259.218286l-134.363429-0.073143a26.550857 26.550857 0 1 0 0 53.101715h134.363429a76.580571 76.580571 0 0 1 0 153.014857l-97.133715 3.657143zM417.206857 749.714286h207.36c41.910857 0 78.774857-26.331429 89.526857-62.610286h34.157715c61.074286 0 110.665143-49.664 110.665142-110.665143v-454.729143c0-61.074286-49.590857-110.738286-110.665142-110.738285H293.522286A110.738286 110.738286 0 0 0 182.857143 121.636571V576.365714c0 61.074286 49.664 110.665143 110.665143 110.665143h31.597714A99.035429 99.035429 0 0 0 417.206857 749.714286z m-97.28-117.613715h-26.404571a55.734857 55.734857 0 0 1-55.661715-55.661714v-454.729143c0-30.72 24.941714-55.661714 55.588572-55.661714h454.802286c30.72 0 55.661714 24.941714 55.661714 55.588571V576.512a55.734857 55.734857 0 0 1-55.661714 55.661714l-25.892572 3.072a99.108571 99.108571 0 0 0-97.792-83.382857H417.206857a99.108571 99.108571 0 0 0-97.28 80.310857z m304.64 62.537143H417.206857a44.032 44.032 0 0 1 0-87.844571h207.36a44.032 44.032 0 0 1 0 87.844571z"  horiz-adv-x="1024" />

    
    <glyph glyph-name="tianjiashangpin" unicode="&#58988;" d="M558.933333 57.6H181.333333c-34.133333 0-61.866667 29.866667-61.866666 64V537.6c0 36.266667 27.733333 64 61.866666 64h34.133334c-6.4-44.8-6.4-85.333333-6.4-110.933333 0-21.333333 17.066667-38.4 38.4-38.4s38.4 17.066667 38.4 38.4c0 40.533333 2.133333 78.933333 6.4 110.933333H640c6.4-32 8.533333-68.266667 8.533333-110.933333 0-21.333333 17.066667-38.4 38.4-38.4S725.333333 469.333333 725.333333 490.666667c0 32-2.133333 70.4-8.533333 110.933333h38.4c34.133333 0 61.866667-29.866667 61.866667-64v-179.2c0-21.333333 17.066667-38.4 38.4-38.4s38.4 17.066667 38.4 38.4v179.2c0 78.933333-64 142.933333-140.8 142.933333h-55.466667C669.866667 778.666667 603.733333 864 469.333333 864c-145.066667 0-209.066667-89.6-236.8-183.466667H181.333333c-76.8 0-140.8-64-140.8-142.933333v-416c0-78.933333 64-142.933333 140.8-142.933333h377.6c21.333333 0 38.4 17.066667 38.4 38.4 2.133333 23.466667-14.933333 40.533333-38.4 40.533333zM469.333333 785.066667c70.4 0 119.466667-34.133333 149.333334-104.533334H315.733333c27.733333 72.533333 76.8 104.533333 153.6 104.533334zM947.2 149.333333h-123.733333v125.866667c0 21.333333-17.066667 38.4-38.4 38.4s-38.4-17.066667-38.4-38.4V149.333333h-128c-21.333333 0-38.4-17.066667-38.4-38.4s17.066667-38.4 38.4-38.4h125.866666v-125.866666c0-21.333333 17.066667-38.4 38.4-38.4s38.4 17.066667 38.4 38.4v125.866666h123.733334c21.333333 0 38.4 17.066667 38.4 38.4s-14.933333 36.266667-36.266667 38.4z m0 0"  horiz-adv-x="1024" />

    
    <glyph glyph-name="shangpinshezhi" unicode="&#59094;" d="M630.784 5.12c-14.848 0-29.184 6.144-38.4 15.872-12.8 13.824-52.736 49.152-84.992 49.152-32.256 0-73.216-35.84-84.48-48.128-9.216-9.728-23.552-15.872-37.888-15.872-7.168 0-13.312 1.536-19.456 4.096l-100.352 55.296c-18.944 13.312-26.112 37.376-16.896 57.344 0 0 9.216 20.992 9.216 39.936 0 57.344-47.104 103.936-105.472 103.936H148.48c-17.408 0-30.72 14.336-35.328 36.864-0.512 1.536-0.512 154.624 0 156.672 4.608 23.04 18.432 37.376 35.328 36.864h3.584c57.856 0 105.472 46.592 105.472 103.936 0 18.944-9.216 39.424-9.216 39.936-2.56 5.632-4.096 11.776-4.096 18.432 0 15.872 7.68 29.696 19.968 37.888l105.984 57.344c6.144 2.56 12.8 4.096 20.48 4.096 14.336 0 28.672-5.632 37.888-15.36 12.288-12.8 51.712-46.08 83.456-46.08 31.232 0 70.656 32.768 82.944 45.056 9.216 9.216 23.552 15.36 37.888 15.36 7.168 0 13.312-1.536 19.456-4.096l102.4-55.808c18.944-13.312 26.112-37.376 16.896-57.344 0 0-9.216-20.992-9.216-39.936 0-57.344 47.104-103.936 105.472-103.936h3.584c16.896 0.512 30.72-14.336 35.328-36.864 0.512-2.048 0.512-154.624 0-156.672-4.608-23.04-18.432-37.376-35.328-36.864h-3.584c-57.856 0-105.472-46.592-105.472-103.936 0-18.944 9.216-39.424 9.216-39.936 9.216-19.968 2.048-44.032-15.872-56.832l-103.936-56.832c-6.656-2.048-13.824-3.584-20.992-3.584z m-9.728 65.536c1.024-0.512 2.048-1.024 3.072-1.024l91.136 49.664c-2.048 5.12-12.288 29.696-12.288 54.784 0 76.288 60.928 138.752 137.216 142.336 1.024 5.12 1.024 123.904 0 129.536-76.288 4.096-137.216 66.56-137.216 142.336 0 25.6 10.24 50.176 12.288 54.784l-89.6 49.152h-0.512c-1.024 0-2.56-0.512-3.584-1.024-1.536-1.536-14.336-14.336-33.28-27.648-27.648-18.944-53.76-28.672-77.824-28.672-24.064 0-50.176 9.728-78.336 29.184-32.256 24.576-58.368 54.784-76.8 89.6 43.52-59.904 42.496-59.392 40.96-59.392 0 0-31.232-16.896-93.184-50.176 2.048-5.12 12.288-29.696 12.288-54.784 0-76.288-60.928-138.752-137.216-142.336-1.024-6.144-1.024-123.904 0-129.536 76.288-4.096 137.216-66.56 137.216-142.336 0-25.6-10.24-50.176-12.288-54.784l88.064-48.64c1.024 0 2.048 0.512 3.072 0.512 1.536 1.536 14.848 15.36 33.792 29.184 28.16 20.48 54.784 30.72 79.36 30.72 25.088 0 51.712-10.752 80.384-31.232 18.944-14.848 31.744-28.672 33.28-30.208z m-111.616 160.256c-84.992 0-154.112 67.584-154.112 151.04s69.12 151.04 154.112 151.04 154.112-67.584 154.112-151.04-69.12-151.04-154.112-151.04z m0 64.512c48.64 0 88.576 38.912 88.576 87.04s-39.424 87.04-88.576 87.04c-48.64 0-88.576-38.912-88.576-87.04s39.936-87.04 88.576-87.04z m0 0"  horiz-adv-x="1024" />

    
    <glyph glyph-name="labayinliang" unicode="&#58951;" d="M842 444a15 15 0 0 1 30 0 300 300 0 0 1-300 300 15 15 0 0 1 0-30 270 270 0 0 0 270-270zM305.6 837.6A90 90 0 0 1 152 774v-412.8l-93.6-93.6a90 90 0 0 1 0-127.2l210-210a90 90 0 0 1 127.2 0l93.6 93.6H902a90 90 0 0 1 63.6 153.6z m141.3-771.3l-93.6-93.6a30 30 0 0 0-42.3 0l-210 210a30 30 0 0 0 0 42.3l93.6 93.6L447.2 66z m42.3 17.7a60 60 0 0 1-13.5-2.7L209.3 348a60 60 0 0 1 2.7 13.2v360L850.7 84z m440.4 18.6A30 30 0 0 0 902 84h-9L212 765v9a30 30 0 0 0 51.3 21.3l660-660a30 30 0 0 0 6.3-32.7zM572 804a360 360 0 0 0 360-360 30 30 0 0 1 60 0A420 420 0 0 1 572 864a30 30 0 0 1 0-60z"  horiz-adv-x="1024" />

    
    <glyph glyph-name="suo" unicode="&#58897;" d="M809.6 479.36h-53.76V587.52c0 135.68-108.096 243.84-243.2 243.84-135.04 0-243.2-108.16-243.2-243.84v-108.16h-53.76c-29.44 0-53.76-24.32-53.76-53.76v-433.28c0-29.44 24.32-53.76 53.76-53.76H809.6c30.08 0 54.4 24.32 54.4 53.76V425.6c0 29.44-24.32 53.76-54.4 53.76z m-135.04 0H350.72V587.52c0 89.6 72.96 162.56 161.92 162.56a162.56 162.56 0 0 0 161.92-162.56v-108.16z"  horiz-adv-x="1024" />

    
    <glyph glyph-name="shandian" unicode="&#59574;" d="M395.765333 309.429333h-171.733333c-22.421333 0-37.888 22.442667-29.909333 43.381334L364.768 800.725333A32 32 0 0 0 394.666667 821.333333h287.957333c22.72 0 38.208-23.018667 29.632-44.064l-99.36-243.882666h187.050667c27.509333 0 42.186667-32.426667 24.042666-53.098667l-458.602666-522.56c-22.293333-25.408-63.626667-3.392-54.976 29.28l85.354666 322.421333zM416.714667 757.333333L270.453333 373.418667h166.869334a32 32 0 0 0 30.933333-40.181334l-61.130667-230.954666 322.176 367.114666H565.312c-22.72 0-38.208 23.018667-29.632 44.064l99.36 243.882667H416.714667z"  horiz-adv-x="1024" />

    


  </font>
</defs>
</svg>
